<svg xmlns="http://www.w3.org/2000/svg" width="600" height="600" viewBox="0 0 600 600">
  <rect width="600" height="600" fill="#f7f8fa"/>
  <ellipse cx="300" cy="370" rx="165" ry="18" fill="#000" opacity="0.05"/>
  <path d="M112 268 Q182 198 300 193 Q418 198 488 268 Q458 342 300 358 Q142 342 112 268Z" fill="#2D5986" opacity="0.92"/>
  <!-- Geometric pattern -->
  <line x1="180" y1="220" x2="240" y2="295" stroke="white" stroke-width="1.5" opacity="0.18"/>
  <line x1="240" y1="220" x2="300" y2="295" stroke="white" stroke-width="1.5" opacity="0.18"/>
  <line x1="300" y1="220" x2="360" y2="295" stroke="white" stroke-width="1.5" opacity="0.18"/>
  <line x1="360" y1="220" x2="420" y2="295" stroke="white" stroke-width="1.5" opacity="0.18"/>
  <line x1="180" y1="295" x2="240" y2="220" stroke="white" stroke-width="1.5" opacity="0.12"/>
  <line x1="240" y1="295" x2="300" y2="220" stroke="white" stroke-width="1.5" opacity="0.12"/>
  <line x1="300" y1="295" x2="360" y2="220" stroke="white" stroke-width="1.5" opacity="0.12"/>
  <line x1="360" y1="295" x2="420" y2="220" stroke="white" stroke-width="1.5" opacity="0.12"/>
  <path d="M112 268 Q182 198 300 193 Q418 198 488 268" fill="none" stroke="#1A3A5C" stroke-width="2.5" opacity="0.5"/>
  <path d="M300 193 Q312 168 322 145" fill="none" stroke="#1A3A5C" stroke-width="6" stroke-linecap="round"/>
  <path d="M300 193 Q288 168 278 145" fill="none" stroke="#1A3A5C" stroke-width="6" stroke-linecap="round"/>
  <ellipse cx="300" cy="142" rx="24" ry="11" fill="#1A3A5C" opacity="0.85"/>
</svg>
