<svg xmlns="http://www.w3.org/2000/svg" width="600" height="600" viewBox="0 0 600 600">
  <rect width="600" height="600" fill="#f7f8fa"/>
  <ellipse cx="300" cy="390" rx="160" ry="22" fill="#000" opacity="0.05"/>
  <path d="M140 358 Q145 248 300 198 Q455 248 460 358 Q420 383 300 386 Q180 383 140 358Z" fill="#FFFFFF" stroke="#E0E0E0" stroke-width="1.5" opacity="0.98"/>
  <path d="M140 358 Q220 373 300 376 Q380 373 460 358 Q420 383 300 386 Q180 383 140 358Z" fill="#F0F0F0" opacity="0.8"/>
  <path d="M163 328 Q300 315 437 328" fill="none" stroke="#D8D8D8" stroke-width="1.5" opacity="0.6"/>
  <path d="M153 302 Q300 288 447 302" fill="none" stroke="#D8D8D8" stroke-width="1.5" opacity="0.5"/>
  <path d="M163 273 Q300 258 437 273" fill="none" stroke="#D8D8D8" stroke-width="1" opacity="0.4"/>
  <path d="M140 358 Q108 368 88 388" fill="none" stroke="#D0D0D0" stroke-width="5" stroke-linecap="round"/>
  <path d="M460 358 Q492 368 512 388" fill="none" stroke="#D0D0D0" stroke-width="5" stroke-linecap="round"/>
  <circle cx="300" cy="200" r="13" fill="#E0E0E0" opacity="0.9"/>
  <circle cx="300" cy="200" r="6" fill="white" opacity="0.7"/>
</svg>
